<?xml version="1.0" encoding="UTF-8"?>
<svg width="24px" height="24px" viewBox="0 0 24 24" version="1.1" xmlns="http://www.w3.org/2000/svg" xmlns:xlink="http://www.w3.org/1999/xlink">
    <title>-g-ic-facebook-white</title>
    <defs>
        <path d="M24,12 C24,5.45490796 18.545092,0 12,0 C5.45490796,0 0,5.45490796 0,12 C0,17.9150832 4.33339427,22.6703188 10.0001406,23.5603313 L10.0001406,15.2785482 L6.9900983,15.2785482 L6.9900983,11.8518333 L10.0001406,11.8518333 L10.0001406,9.24012994 C10.0001406,6.27008817 11.7701655,4.62839842 14.4768702,4.62839842 C15.7735551,4.62839842 17.1302409,4.86006834 17.1302409,4.86006834 L17.1302409,7.77677603 L15.6352199,7.77677603 C14.1635325,7.77677603 13.703526,8.69012221 13.703526,9.62846873 L13.703526,11.8518333 L16.9902389,11.8518333 L16.4652315,15.2785482 L13.703526,15.2785482 L13.703526,23.5603313 C19.3702724,22.6719855 24,17.9167499 24,12 Z" id="path-1"></path>
    </defs>
    <g id="-g-ic-facebook-white" stroke="none" stroke-width="1" fill="none" fill-rule="evenodd">
        <g id="Path">
            <mask id="mask-2" fill="white">
                <use xlink:href="#path-1"></use>
            </mask>
            <use id="Mask" fill="#FFFFFF" fill-rule="nonzero" xlink:href="#path-1"></use>
            <path d="M16.4652315,15.2785482 L16.9902389,11.8518333 L13.703526,11.8518333 L13.703526,9.62846873 C13.703526,8.6917889 14.1618658,7.77677603 15.6352199,7.77677603 L17.1302409,7.77677603 L17.1302409,4.86006834 C17.1302409,4.86006834 15.7735551,4.62839842 14.4768702,4.62839842 C11.7701655,4.62839842 10.0001406,6.26842148 10.0001406,9.24012994 L10.0001406,11.8518333 L6.9900983,11.8518333 L6.9900983,15.2785482 L10.0001406,15.2785482 L10.0001406,23.5603313 C10.6034824,23.6553327 11.2218245,23.7036667 11.8518333,23.7036667 C12.4818422,23.7036667 13.1001842,23.653666 13.703526,23.5603313 L13.703526,15.2785482 L16.4652315,15.2785482 Z" fill="#FEFEFE" fill-rule="nonzero" mask="url(#mask-2)"></path>
        </g>
    </g>
</svg>