<?xml version="1.0" encoding="UTF-8"?>
<svg width="24px" height="24px" viewBox="0 0 24 24" version="1.1" xmlns="http://www.w3.org/2000/svg" xmlns:xlink="http://www.w3.org/1999/xlink">
    <title>-g-ic / ic-instagram-white</title>
    <g id="-g-ic-/-ic-instagram-white" stroke="none" stroke-width="1" fill="none" fill-rule="evenodd">
        <g id="instagram-glyph-1" fill="#FFFFFF" fill-rule="nonzero">
            <path d="M8.0006462,12 C8.0006462,9.79095315 9.79095315,7.9996769 12,7.9996769 C14.2090468,7.9996769 16.0003231,9.79095315 16.0003231,12 C16.0003231,14.2090468 14.2090468,16.0003231 12,16.0003231 C9.79095315,16.0003231 8.0006462,14.2090468 8.0006462,12 M5.83812601,12 C5.83812601,15.403231 8.59676898,18.161874 12,18.161874 C15.403231,18.161874 18.161874,15.403231 18.161874,12 C18.161874,8.59676898 15.403231,5.83812601 12,5.83812601 C8.59676898,5.83812601 5.83812601,8.59676898 5.83812601,12 M16.9657512,5.59386107 C16.9657512,6.38869144 17.6103393,7.03424879 18.4061389,7.03424879 C19.2009693,7.03424879 19.8465267,6.38869144 19.8465267,5.59386107 C19.8465267,4.79903069 19.2019386,4.15444265 18.4061389,4.15444265 C17.6103393,4.15444265 16.9657512,4.79903069 16.9657512,5.59386107 M7.15153473,21.7676898 C5.9815832,21.714378 5.3457189,21.5195477 4.92310178,21.3547658 C4.3628433,21.1366721 3.9634895,20.8768982 3.54281099,20.457189 C3.12310178,20.0374798 2.86235864,19.638126 2.64523425,19.0778675 C2.48045234,18.6552504 2.28562197,18.0193861 2.23231018,16.8494346 C2.17415186,15.5844911 2.16252019,15.2045234 2.16252019,12 C2.16252019,8.79547658 2.17512116,8.41647819 2.23231018,7.15056543 C2.28562197,5.98061389 2.48142165,5.3457189 2.64523425,4.92213247 C2.86332795,4.36187399 3.12310178,3.96252019 3.54281099,3.54184168 C3.96252019,3.12213247 4.36187399,2.86138934 4.92310178,2.64426494 C5.3457189,2.47948304 5.9815832,2.28465267 7.15153473,2.23134087 C8.41647819,2.17318255 8.79644588,2.16155089 12,2.16155089 C15.2045234,2.16155089 15.5835218,2.17415186 16.8494346,2.23134087 C18.0193861,2.28465267 18.6542811,2.48045234 19.0778675,2.64426494 C19.638126,2.86138934 20.0374798,3.12213247 20.4581583,3.54184168 C20.8778675,3.96155089 21.1376414,4.36187399 21.3557351,4.92213247 C21.520517,5.3447496 21.7153473,5.98061389 21.7686591,7.15056543 C21.8268174,8.41647819 21.8384491,8.79547658 21.8384491,12 C21.8384491,15.2035541 21.8268174,15.5835218 21.7686591,16.8494346 C21.7153473,18.0193861 21.5195477,18.6552504 21.3557351,19.0778675 C21.1376414,19.638126 20.8778675,20.0374798 20.4581583,20.457189 C20.0384491,20.8768982 19.638126,21.1366721 19.0778675,21.3547658 C18.6552504,21.5195477 18.0193861,21.714378 16.8494346,21.7676898 C15.5844911,21.8258481 15.2045234,21.8374798 12,21.8374798 C8.79644588,21.8374798 8.41647819,21.8258481 7.15153473,21.7676898 M7.05266559,0.0726978998 C5.77512116,0.13085622 4.90274637,0.333441034 4.13990307,0.630048465 C3.35088853,0.93634895 2.68206785,1.34733441 2.01421648,2.01421648 C1.34733441,2.68109855 0.93634895,3.34991922 0.630048465,4.13990307 C0.333441034,4.90274637 0.13085622,5.77512116 0.0726978998,7.05266559 C0.0135702746,8.33214863 0,8.74119548 0,12 C0,15.2588045 0.0135702746,15.6678514 0.0726978998,16.9473344 C0.13085622,18.2248788 0.333441034,19.0972536 0.630048465,19.8600969 C0.93634895,20.6491115 1.34636511,21.3189015 2.01421648,21.9857835 C2.68109855,22.6526656 3.34991922,23.0626817 4.13990307,23.3699515 C4.90371567,23.666559 5.77512116,23.8691438 7.05266559,23.9273021 C8.33311793,23.9854604 8.74119548,24 12,24 C15.2597738,24 15.6678514,23.9864297 16.9473344,23.9273021 C18.2248788,23.8691438 19.0972536,23.666559 19.8600969,23.3699515 C20.6491115,23.0626817 21.3179321,22.6526656 21.9857835,21.9857835 C22.6526656,21.3189015 23.0626817,20.6491115 23.3699515,19.8600969 C23.666559,19.0972536 23.8701131,18.2248788 23.9273021,16.9473344 C23.9854604,15.6668821 23.9990307,15.2588045 23.9990307,12 C23.9990307,8.74119548 23.9854604,8.33214863 23.9273021,7.05266559 C23.8691438,5.77512116 23.666559,4.90274637 23.3699515,4.13990307 C23.0626817,3.35088853 22.6526656,2.68206785 21.9857835,2.01421648 C21.3189015,1.34733441 20.6491115,0.93634895 19.8610662,0.630048465 C19.0972536,0.333441034 18.2248788,0.129886914 16.9483037,0.0726978998 C15.6688207,0.01453958 15.2597738,0 12.0009693,0 C8.74119548,0 8.33311793,0.0135702746 7.05266559,0.0726978998" id="Shape"></path>
        </g>
    </g>
</svg>