<?xml version="1.0" encoding="UTF-8"?>
<svg width="24px" height="24px" viewBox="0 0 24 24" version="1.1" xmlns="http://www.w3.org/2000/svg" xmlns:xlink="http://www.w3.org/1999/xlink">
    <title>-g-ic / ic-twitter-white</title>
    <g id="-g-ic-/-ic-twitter-white" stroke="none" stroke-width="1" fill="none" fill-rule="evenodd">
        <g id="twitter" transform="translate(0.000000, 2.000000)" fill="#FFFFFF" fill-rule="nonzero">
            <path d="M16.0360685,0.00443951165 L16.0360685,0 L17.1614067,0 L17.5725879,0.0843507214 C17.846716,0.139112098 18.0955888,0.210876804 18.3192065,0.299667037 C18.5428458,0.38845727 18.759257,0.492053274 18.96844,0.610432852 C19.1776447,0.728812431 19.3673724,0.849433962 19.5376231,0.972253052 C19.7064238,1.0936071 19.8579116,1.22235294 19.9920866,1.35849057 C20.1247899,1.49611543 20.3318305,1.53163152 20.613165,1.46503885 C20.8944995,1.39844617 21.1974752,1.30594895 21.522092,1.18756937 C21.8467087,1.06918979 22.1677331,0.93600444 22.4851217,0.788013319 C22.802532,0.640022198 22.9958738,0.546059933 23.0651253,0.506104329 C23.132927,0.464683685 23.1690027,0.442486127 23.1733309,0.439511654 L23.1776375,0.432852386 L23.1992786,0.421753607 L23.2209197,0.410654828 L23.2425609,0.399556049 L23.264202,0.38845727 L23.2685302,0.381798002 L23.2750225,0.377358491 L23.2815365,0.372918979 L23.2858431,0.366259711 L23.3074842,0.359600444 L23.3291253,0.355160932 L23.3248188,0.38845727 L23.3183048,0.421753607 L23.3074842,0.455049945 L23.2966637,0.488346282 L23.2858431,0.51054384 L23.2750225,0.532741398 L23.264202,0.566037736 C23.2569955,0.588235294 23.249789,0.617824639 23.2425609,0.654827969 C23.2353544,0.691831299 23.166817,0.839800222 23.0369702,1.09877913 C22.9071235,1.35775805 22.7448151,1.62042175 22.5500451,1.88679245 C22.355275,2.15316315 22.1807178,2.35440622 22.0263517,2.49056604 C21.8705356,2.6281909 21.7673724,2.72437292 21.716862,2.7791343 C21.6663733,2.83536071 21.605064,2.88714761 21.5329125,2.9345172 L21.4247069,3.00776915 L21.4030658,3.01886792 L21.3814247,3.0299667 L21.3771181,3.03662597 L21.3706041,3.04106548 L21.3641118,3.04550499 L21.3597836,3.05216426 L21.3381425,3.06326304 L21.3165014,3.07436182 L21.3121948,3.08102109 L21.3056808,3.0854606 L21.2991885,3.08990011 L21.2948602,3.09655938 L21.2905537,3.10321865 L21.2840397,3.10765816 L21.2775473,3.11209767 L21.2732191,3.11875694 L21.3814247,3.11875694 L21.987376,2.98557159 C22.3913508,2.89678135 22.7772768,2.78950055 23.1451758,2.66370699 L23.729486,2.46392897 L23.7944094,2.44173141 L23.8268711,2.43063263 L23.8485122,2.41953385 L23.8701533,2.40843507 L23.8917944,2.39733629 L23.9134355,2.38623751 L23.9567178,2.37957825 L24,2.37513873 L24,2.41953385 L23.9891794,2.42397336 L23.9783589,2.43063263 L23.9740523,2.4372919 L23.9675383,2.44173141 L23.961046,2.44617092 L23.9567178,2.45283019 L23.9524112,2.45948946 L23.9458972,2.46392897 L23.9394049,2.46836848 L23.9350766,2.47502775 L23.9307701,2.48168701 L23.9242561,2.48612653 L23.9134355,2.50832408 L23.902615,2.53052164 L23.8961226,2.53496115 C23.8932444,2.53940067 23.8016375,2.66517203 23.6212804,2.91231964 C23.440945,3.1609323 23.34356,3.28670366 23.3291253,3.28967814 C23.3147124,3.29411765 23.2944995,3.31631521 23.2685302,3.35627081 C23.2440108,3.39769145 23.091073,3.5627081 22.8097385,3.85127636 C22.528404,4.13984462 22.2528693,4.39658158 21.9830694,4.62153163 C21.7118413,4.84794673 21.5747665,5.12614872 21.5718882,5.45615982 C21.56756,5.78468368 21.5509612,6.15613762 21.522092,6.57047725 C21.4932444,6.98483907 21.4391416,7.43247503 21.3597836,7.91342952 C21.2804472,8.39438402 21.157807,8.9382242 20.9918846,9.54495006 C20.8259838,10.1516759 20.6239856,10.7436182 20.3859333,11.3207547 C20.147881,11.8978912 19.8990081,12.4158269 19.6393147,12.8745838 C19.3796213,13.3333407 19.141569,13.721798 18.9251578,14.0399556 C18.7087466,14.3581132 18.488743,14.6577802 18.2651037,14.9389567 C18.041486,15.2201332 17.7587232,15.5368257 17.4167935,15.8890122 C17.0734139,16.2397336 16.885872,16.4321199 16.8541244,16.4661487 C16.8209486,16.4987125 16.6795672,16.6200666 16.4299369,16.8301887 C16.1817998,17.041798 15.9148783,17.2534073 15.6292155,17.4650388 C15.3450027,17.6751831 15.0838593,17.8505438 14.845807,17.991121 C14.6077547,18.1316981 14.3206637,18.2922531 13.9844905,18.472808 C13.649789,18.654828 13.2876465,18.8235294 12.8981064,18.9789123 C12.5085663,19.1342952 12.097385,19.2785794 11.6645627,19.4117647 C11.2317403,19.5449501 10.8133526,19.6485461 10.4093778,19.7225305 C10.0054247,19.796515 9.54734716,19.8594229 9.03516682,19.9112098 L8.26690712,19.9889012 L8.26690712,20 L6.86023445,20 L6.86023445,19.9889012 L6.67628494,19.9778024 C6.55366637,19.9704107 6.45266727,19.9629967 6.37330929,19.9556049 C6.29397295,19.9482131 5.99458972,19.9075028 5.47520289,19.8335183 C4.95581605,19.7595339 4.54824887,19.6855272 4.25247971,19.6115427 C3.95673219,19.5375583 3.5166817,19.3969589 2.93237151,19.1897891 C2.34806132,18.9826193 1.84815149,18.7732075 1.43264202,18.5615982 C1.01858251,18.3514539 0.758889089,18.2182686 0.653561767,18.1620422 C0.5496844,18.1072808 0.432822362,18.0392231 0.302975654,17.9578246 L0.108205591,17.8357381 L0.103899008,17.8290788 L0.0973850316,17.8246393 L0.0908926961,17.8201998 L0.0865644725,17.8135405 L0.0649233544,17.8024417 L0.0432822362,17.791343 L0.0389756537,17.7846837 L0.0324616772,17.7802442 L0.0259693417,17.7758047 L0.0216411181,17.7691454 L0.0173345356,17.7624861 L0.0108205591,17.7580466 L0,17.7580466 L0,17.7136515 L0.0216411181,17.718091 L0.0432822362,17.7247503 L0.140667268,17.7358491 C0.205590622,17.7432408 0.382333634,17.7543396 0.670874662,17.7691454 C0.959437331,17.7839512 1.26600541,17.7839512 1.59062218,17.7691454 C1.91523895,17.7543396 2.24708386,17.7210433 2.58611362,17.6692564 C2.92516501,17.6174695 3.3255257,17.5286792 3.78719567,17.4028857 C4.24888729,17.2770921 4.6730532,17.127636 5.05971506,16.954495 C5.44492696,16.779889 5.71903336,16.6496559 5.88207755,16.563818 C6.04365014,16.4794673 6.29035888,16.3225971 6.62218215,16.0932297 L7.11992786,15.7491676 L7.12425609,15.7425083 L7.13074842,15.7380688 L7.1372624,15.7336293 L7.14156898,15.72697 L7.1458972,15.7203108 L7.15238954,15.7158713 L7.15890352,15.7114317 L7.1632101,15.7047725 L7.18485122,15.6981132 L7.20649234,15.6936737 L7.21082056,15.6714761 L7.21731289,15.6492786 L7.22382687,15.6448391 L7.22813345,15.6381798 L7.05500451,15.627081 C6.93959243,15.6196892 6.82777277,15.6122752 6.71956718,15.6048835 C6.61136159,15.5974917 6.44184671,15.5641953 6.2110009,15.5049945 C5.98017674,15.4457936 5.73130388,15.3570033 5.46438233,15.2386238 C5.19748242,15.1202442 4.937789,14.9796448 4.68530207,14.8168701 C4.43283679,14.6540954 4.2503156,14.5186681 4.13778179,14.4106548 C4.02669793,14.3040844 3.88241659,14.1531632 3.70495942,13.9578246 C3.52895221,13.7610211 3.37601443,13.5590011 3.24616772,13.3518313 C3.11632101,13.1446615 2.99225248,12.9056382 2.87396213,12.6348502 L2.69431921,12.2308546 L2.68349865,12.1975583 L2.67267809,12.1642619 L2.66618575,12.1420644 L2.66185753,12.1198668 L2.69431921,12.1243063 L2.72678088,12.1309656 L2.96483318,12.1642619 C3.12354914,12.1864595 3.372422,12.1938513 3.71145176,12.1864595 C4.05050316,12.1790677 4.28494139,12.1642619 4.4147881,12.1420644 C4.54463481,12.1198668 4.62399279,12.105061 4.6528404,12.0976693 L4.69612263,12.0865705 L4.75022543,12.0754717 L4.80432822,12.0643729 L4.80865645,12.0577137 L4.81514878,12.0532741 L4.82166276,12.0488346 L4.82596934,12.0421754 L4.78268711,12.0310766 L4.73940487,12.0199778 L4.69612263,12.008879 L4.6528404,11.9977802 L4.60955816,11.9866815 C4.58071055,11.9792897 4.53022182,11.9644839 4.45807033,11.9422863 C4.38594049,11.9200888 4.19117042,11.8386903 3.87376014,11.6981132 C3.55637151,11.5575361 3.30388458,11.4206437 3.11632101,11.2874584 C2.92829249,11.153887 2.74900776,11.0078095 2.57962128,10.8501665 C2.41082056,10.6903441 2.22544274,10.4846393 2.02344454,10.2330744 C1.82146799,9.98150943 1.64113255,9.68923418 1.48241659,9.35627081 C1.32372227,9.02330744 1.20469612,8.70514983 1.12533814,8.4017758 C1.04629928,8.1001863 0.994153225,7.79185127 0.969543733,7.48057714 L0.930568079,7.01442841 L0.952209197,7.01886792 L0.973850316,7.02552719 L0.995491434,7.03662597 L1.01713255,7.04772475 L1.03877367,7.05882353 L1.06041479,7.06992231 L1.39585212,7.22530522 C1.61949143,7.32890122 1.8972119,7.41769145 2.22903517,7.49167592 C2.56088007,7.56566038 2.75924256,7.6063707 2.82416592,7.61376249 L2.92155095,7.62486127 L3.11632101,7.62486127 L3.11201443,7.618202 L3.10550045,7.61376249 L3.09900812,7.60932297 L3.09467989,7.60266371 L3.09037331,7.59600444 L3.08385933,7.59156493 L3.077367,7.58712542 L3.07303877,7.58046615 L3.05139766,7.56936737 L3.02975654,7.55826859 L3.02544995,7.55160932 L3.01893598,7.54716981 L3.01244364,7.5427303 L3.00811542,7.53607103 L2.9864743,7.52497225 L2.96483318,7.51387347 L2.9605266,7.50721421 C2.95619838,7.50423973 2.89415329,7.45689234 2.77439134,7.36514983 C2.65607935,7.27192009 2.53201082,7.15132075 2.40216411,7.00332963 C2.2723174,6.85533851 2.14247069,6.6999556 2.01262399,6.53718091 C1.88253821,6.37403326 1.76667374,6.19948172 1.6663661,6.01553829 C1.56538864,5.83056604 1.45861136,5.59524972 1.34607755,5.30965594 C1.23499369,5.02552719 1.15059333,4.73917869 1.09287647,4.45061043 C1.03518124,4.16204218 1.00271957,3.87718091 0.995491434,3.59600444 C0.988284941,3.31482797 0.995491434,3.07436182 1.01713255,2.8745838 C1.03877367,2.67480577 1.08205591,2.4491232 1.14697926,2.19755827 C1.21190261,1.94599334 1.30569522,1.67962264 1.4283138,1.39844617 L1.6122633,0.976692564 L1.62308386,0.943396226 L1.63390442,0.910099889 L1.64041839,0.905660377 L1.64472498,0.89900111 L1.6490532,0.892341842 L1.65554554,0.887902331 L1.66205951,0.892341842 L1.6663661,0.89900111 L1.67069432,0.905660377 L1.67718665,0.910099889 L1.68370063,0.914539401 L1.68800721,0.921198668 L1.69233544,0.927857936 L1.69882777,0.932297447 L1.70964833,0.954495006 L1.72046889,0.976692564 L1.72698287,0.981132075 L1.73128945,0.987791343 L2.02344454,1.32075472 C2.21821461,1.5427303 2.44906041,1.79061043 2.71596032,2.06437292 C2.98288188,2.33813541 3.13075564,2.48019978 3.15960325,2.49056604 C3.1884725,2.50239734 3.2245266,2.53642619 3.26780884,2.59267481 C3.31109107,2.64743618 3.45537241,2.77840178 3.7006312,2.98557159 C3.94591163,3.1927414 4.26691434,3.43322974 4.66366096,3.70699223 C5.06042922,3.98075472 5.50045807,4.25083241 5.98376916,4.51720311 C6.46710189,4.78357381 6.98648873,5.02403996 7.54192967,5.23862375 C8.09739225,5.45320755 8.48693237,5.59378468 8.71055005,5.66037736 C8.93418936,5.72697003 9.31650135,5.81205327 9.85752931,5.91564928 C10.3985573,6.01924528 10.8061461,6.08583796 11.0802525,6.1154273 C11.3543805,6.14501665 11.5419441,6.16204218 11.6429216,6.16648169 L11.7944094,6.1709212 L11.7901028,6.13762486 L11.7835888,6.10432852 L11.7403066,5.82685905 C11.711459,5.64188679 11.6970243,5.38290788 11.6970243,5.04994451 C11.6970243,4.71698113 11.7222795,4.40992231 11.7727683,4.12874584 C11.8232786,3.84756937 11.8990225,3.5627081 12,3.27413984 C12.1009991,2.98557159 12.1998341,2.75396226 12.2964833,2.57935627 C12.3946041,2.40621532 12.5230009,2.20865705 12.6816952,1.98668147 C12.8404112,1.76470588 13.0460018,1.53533851 13.2984671,1.29855716 C13.550954,1.0617758 13.839495,0.850899001 14.1641118,0.665926748 C14.4887286,0.480954495 14.7881118,0.340355161 15.0622182,0.244173141 C15.3363463,0.147991121 15.5671921,0.0850832408 15.754734,0.0554938957 C15.9422976,0.0259045505 16.0360685,0.00887902331 16.0360685,0.00443951165 Z" id="Path"></path>
        </g>
    </g>
</svg>